<svg    viewBox="0 0 24 24" fill="currentColor" xmlns="http://www.w3.org/2000/svg">
<path fillRule="evenodd" clip-rule="evenodd" d="M3.8675 10.7998H17.9035L12.4525 5.3488C11.9835 4.8798 11.9835 4.1198 12.4525 3.6518C12.9215 3.1828 13.6805 3.1828 14.1495 3.6518L21.6495 11.1518C21.6525 11.1538 21.6535 11.1578 21.6565 11.1608C21.7635 11.2698 21.8495 11.3988 21.9085 11.5408C22.0305 11.8348 22.0305 12.1648 21.9085 12.4588C21.8495 12.6018 21.7635 12.7298 21.6565 12.8388C21.6535 12.8418 21.6525 12.8458 21.6495 12.8488L14.1495 20.3488C13.9155 20.5828 13.6085 20.6998 13.3015 20.6998C12.9935 20.6998 12.6865 20.5828 12.4525 20.3488C11.9835 19.8798 11.9835 19.1198 12.4525 18.6518L17.9035 13.1998H3.8675C3.2045 13.1998 2.6675 12.6628 2.6675 11.9998C2.6675 11.3378 3.2045 10.7998 3.8675 10.7998Z"  />
</svg>
