<svg    viewBox="0 0 24 24" fill="currentColor" xmlns="http://www.w3.org/2000/svg">
<path fillRule="evenodd" clipRule="evenodd" d="M20.9659 10.8001H6.92988L12.3809 5.34911C12.4938 5.23802 12.5836 5.10566 12.6451 4.95968C12.7066 4.81371 12.7386 4.65699 12.7393 4.49859C12.7399 4.34018 12.7092 4.18321 12.6489 4.03674C12.5886 3.89027 12.4998 3.75718 12.3878 3.64517C12.2758 3.53316 12.1427 3.44444 11.9963 3.38411C11.8498 3.32379 11.6928 3.29307 11.5344 3.29371C11.376 3.29436 11.2193 3.32636 11.0733 3.38787C10.9273 3.44938 10.795 3.53919 10.6839 3.65211L3.18388 11.1521C3.18088 11.1541 3.17988 11.1581 3.17688 11.1611C3.01236 11.329 2.90078 11.5415 2.85598 11.7723C2.81118 12.003 2.83514 12.2419 2.92488 12.4591C2.98488 12.6021 3.06988 12.7291 3.17688 12.8391L3.18388 12.8491L10.6839 20.3491C10.9189 20.5831 11.2259 20.6991 11.5319 20.6991C11.7691 20.6991 12.0011 20.6287 12.1984 20.497C12.3957 20.3652 12.5495 20.1778 12.6403 19.9587C12.7312 19.7395 12.7551 19.4983 12.7089 19.2655C12.6627 19.0328 12.5486 18.819 12.3809 18.6511L6.93088 13.2001H20.9669C21.2851 13.2001 21.5904 13.0737 21.8154 12.8486C22.0405 12.6236 22.1669 12.3184 22.1669 12.0001C22.1669 11.6819 22.0405 11.3766 21.8154 11.1516C21.5904 10.9265 21.2851 10.8001 20.9669 10.8001"  />
</svg>
