<svg viewBox="0 0 20 23" fill="currentColor" xmlns="http://www.w3.org/2000/svg">
<path fillRule="evenodd" clipRule="evenodd" d="M17.6998 2.7998H16.0698V1.7998C16.0698 1.53459 15.9644 1.28023 15.7769 1.0927C15.5894 0.905162 15.335 0.799805 15.0698 0.799805C14.8046 0.799805 14.5502 0.905162 14.3627 1.0927C14.1752 1.28023 14.0698 1.53459 14.0698 1.7998V2.7998H5.9298V1.7998C5.9298 1.53459 5.82445 1.28023 5.63691 1.0927C5.44938 0.905162 5.19502 0.799805 4.9298 0.799805C4.66459 0.799805 4.41023 0.905162 4.2227 1.0927C4.03516 1.28023 3.9298 1.53459 3.9298 1.7998V2.7998H2.2998C1.76937 2.7998 1.26066 3.01052 0.885591 3.38559C0.510519 3.76066 0.299805 4.26937 0.299805 4.7998V6.99976H19.6998V4.7998C19.6998 4.26937 19.4891 3.76066 19.114 3.38559C18.7389 3.01052 18.2302 2.7998 17.6998 2.7998ZM19.6998 7.99976H0.299805V20.1998C0.299805 20.7302 0.510519 21.2389 0.885591 21.614C1.26066 21.9891 1.76937 22.1998 2.2998 22.1998H17.6998C18.2302 22.1998 18.7389 21.9891 19.114 21.614C19.4891 21.2389 19.6998 20.7302 19.6998 20.1998V7.99976ZM5 12.9998C5.55228 12.9998 6 12.552 6 11.9998C6 11.4475 5.55228 10.9998 5 10.9998C4.44772 10.9998 4 11.4475 4 11.9998C4 12.552 4.44772 12.9998 5 12.9998ZM6 16.9998C6 17.552 5.55228 17.9998 5 17.9998C4.44772 17.9998 4 17.552 4 16.9998C4 16.4475 4.44772 15.9998 5 15.9998C5.55228 15.9998 6 16.4475 6 16.9998ZM10 12.9998C10.5523 12.9998 11 12.552 11 11.9998C11 11.4475 10.5523 10.9998 10 10.9998C9.44771 10.9998 9 11.4475 9 11.9998C9 12.552 9.44771 12.9998 10 12.9998ZM11 16.9998C11 17.552 10.5523 17.9998 10 17.9998C9.44771 17.9998 9 17.552 9 16.9998C9 16.4475 9.44771 15.9998 10 15.9998C10.5523 15.9998 11 16.4475 11 16.9998ZM15 12.9998C15.5523 12.9998 16 12.552 16 11.9998C16 11.4475 15.5523 10.9998 15 10.9998C14.4477 10.9998 14 11.4475 14 11.9998C14 12.552 14.4477 12.9998 15 12.9998ZM16 16.9998C16 17.552 15.5523 17.9998 15 17.9998C14.4477 17.9998 14 17.552 14 16.9998C14 16.4475 14.4477 15.9998 15 15.9998C15.5523 15.9998 16 16.4475 16 16.9998Z" />
</svg>
