<svg  viewBox="0 0 24 24" fill="currentColor" xmlns="http://www.w3.org/2000/svg">
<path fill-rule="evenodd" clip-rule="evenodd" d="M12.0002 18.2669C10.6094 18.2653 9.27595 17.7121 8.29248 16.7286C7.30901 15.7452 6.7558 14.4117 6.75421 13.0209C6.75553 11.6299 7.30863 10.2962 8.29213 9.31253C9.27563 8.32884 10.6092 7.77549 12.0002 7.7739C13.3912 7.77549 14.7248 8.32884 15.7083 9.31253C16.6918 10.2962 17.2449 11.6299 17.2462 13.0209C17.2446 14.4117 16.6914 15.7452 15.7079 16.7286C14.7245 17.7121 13.391 18.2653 12.0002 18.2669ZM20.1132 5.1359H17.1592L16.0462 2.9669C15.8697 2.62354 15.602 2.33547 15.2724 2.13435C14.9429 1.93323 14.5643 1.82685 14.1782 1.8269H9.76521C9.37154 1.82686 8.98579 1.93747 8.65196 2.14611C8.31813 2.35475 8.04967 2.65303 7.87721 3.0069L6.84121 5.1359H3.88721C3.5562 5.13577 3.2284 5.20086 2.92254 5.32744C2.61669 5.45402 2.33876 5.63962 2.10466 5.87364C1.87055 6.10766 1.68483 6.38551 1.55813 6.69131C1.43143 6.99712 1.36621 7.32489 1.36621 7.6559V19.2569C1.36621 19.5879 1.43143 19.9157 1.55813 20.2215C1.68483 20.5273 1.87055 20.8052 2.10466 21.0392C2.33876 21.2732 2.61669 21.4588 2.92254 21.5854C3.2284 21.712 3.5562 21.777 3.88721 21.7769H20.1132C20.4442 21.777 20.772 21.712 21.0779 21.5854C21.3837 21.4588 21.6617 21.2732 21.8958 21.0392C22.1299 20.8052 22.3156 20.5273 22.4423 20.2215C22.569 19.9157 22.6342 19.5879 22.6342 19.2569V7.6559C22.6342 7.32489 22.569 6.99712 22.4423 6.69131C22.3156 6.38551 22.1299 6.10766 21.8958 5.87364C21.6617 5.63962 21.3837 5.45402 21.0779 5.32744C20.772 5.20086 20.4442 5.13577 20.1132 5.1359Z" />
<path fill-rule="evenodd" clip-rule="evenodd" d="M12.0005 9.66382C11.1109 9.66488 10.258 10.0188 9.62898 10.648C9 11.2772 8.6463 12.1302 8.64551 13.0198C8.64604 13.9096 8.99965 14.7627 9.62869 15.3919C10.2577 16.0212 11.1108 16.375 12.0005 16.3758C12.8902 16.375 13.7433 16.0212 14.3723 15.3919C15.0014 14.7627 15.355 13.9096 15.3555 13.0198C15.3547 12.1302 15.001 11.2772 14.372 10.648C13.7431 10.0188 12.8902 9.66488 12.0005 9.66382Z" />
</svg>
