<svg    viewBox="0 0 24 24" fill="currentColor" xmlns="http://www.w3.org/2000/svg">
<path d="M11.21 15.3999C11.42 15.6099 11.71 15.7199 11.99 15.7199C12.27 15.7199 12.55 15.6099 12.77 15.3999L18 10.1599C18.43 9.72993 18.43 9.02993 18 8.59993C17.57 8.16993 16.87 8.16993 16.44 8.59993L13.09 11.9499V2.77993C13.09 2.16993 12.6 1.67993 11.99 1.67993C11.38 1.67993 10.89 2.16993 10.89 2.77993V11.9599L7.52996 8.60993C7.09996 8.17993 6.39996 8.17993 5.96996 8.60993C5.53996 9.03993 5.53996 9.73993 5.96996 10.1699L11.21 15.3999Z"  />
<path d="M21.38 13.0898C20.77 13.0898 20.28 13.5798 20.28 14.1898V18.3998C20.28 19.1198 19.7 19.6998 18.98 19.6998H5C4.28 19.6998 3.7 19.1198 3.7 18.3998V14.1898C3.7 13.5798 3.21 13.0898 2.6 13.0898C1.99 13.0898 1.5 13.5798 1.5 14.1898V18.3998C1.5 20.3298 3.07 21.8998 5 21.8998H18.98C20.91 21.8998 22.48 20.3298 22.48 18.3998V14.1898C22.48 13.5798 21.99 13.0898 21.38 13.0898Z"  />
</svg>
