<svg    viewBox="0 0 24 24" fill="currentColor" xmlns="http://www.w3.org/2000/svg">
<path fill-rule="evenodd" clip-rule="evenodd" d="M14.7714 4.5999C15.0179 4.6079 15.2516 4.71144 15.4231 4.88864C15.5947 5.06583 15.6906 5.30278 15.6906 5.5494C15.6906 5.79602 15.5947 6.03298 15.4231 6.21017C15.2516 6.38736 15.0179 6.4909 14.7714 6.4989C14.5249 6.4909 14.2912 6.38736 14.1196 6.21017C13.9481 6.03298 13.8522 5.79602 13.8522 5.5494C13.8522 5.30278 13.9481 5.06583 14.1196 4.88864C14.2912 4.71144 14.5249 4.6079 14.7714 4.5999ZM3.50039 6.6489H11.8304C12.0536 7.24941 12.4548 7.76746 12.9803 8.1338C13.5059 8.50013 14.1308 8.69729 14.7714 8.6989C15.4119 8.69709 16.0365 8.49984 16.5619 8.13351C17.0872 7.76719 17.4883 7.24925 17.7114 6.6489H20.5004C20.7921 6.6489 21.0719 6.53301 21.2782 6.32672C21.4845 6.12043 21.6004 5.84064 21.6004 5.5489C21.6004 5.25716 21.4845 4.97737 21.2782 4.77108C21.0719 4.56479 20.7921 4.4489 20.5004 4.4489H17.7114C17.4881 3.84875 17.087 3.33102 16.5616 2.96488C16.0363 2.59875 15.4117 2.40164 14.7714 2.3999C14.1309 2.40172 13.5063 2.59884 12.9808 2.96495C12.4553 3.33106 12.054 3.84875 11.8304 4.4489H3.50039C3.20865 4.4489 2.92886 4.56479 2.72257 4.77108C2.51628 4.97737 2.40039 5.25716 2.40039 5.5489C2.40039 5.84064 2.51628 6.12043 2.72257 6.32672C2.92886 6.53301 3.20865 6.6489 3.50039 6.6489ZM20.5004 10.8989H3.50039C3.20865 10.8989 2.92886 11.0148 2.72257 11.2211C2.51628 11.4274 2.40039 11.7072 2.40039 11.9989C2.40039 12.2906 2.51628 12.5704 2.72257 12.7767C2.92886 12.983 3.20865 13.0989 3.50039 13.0989H20.5004C20.7921 13.0989 21.0719 12.983 21.2782 12.7767C21.4845 12.5704 21.6004 12.2906 21.6004 11.9989C21.6004 11.7072 21.4845 11.4274 21.2782 11.2211C21.0719 11.0148 20.7921 10.8989 20.5004 10.8989ZM9.22939 19.3999C8.98524 19.3887 8.7548 19.2838 8.58598 19.1071C8.41717 18.9303 8.32297 18.6953 8.32297 18.4509C8.32297 18.2065 8.41717 17.9715 8.58598 17.7947C8.7548 17.618 8.98524 17.5131 9.22939 17.5019C9.47588 17.5099 9.7096 17.6134 9.88113 17.7906C10.0527 17.9678 10.1486 18.2048 10.1486 18.4514C10.1486 18.698 10.0527 18.935 9.88113 19.1122C9.7096 19.2894 9.47588 19.3929 9.22939 19.4009M20.5004 17.3499H12.1704C11.9472 16.7494 11.546 16.2313 11.0205 15.865C10.4949 15.4987 9.87002 15.3015 9.22939 15.2999C8.58893 15.3017 7.96427 15.499 7.43891 15.8653C6.91355 16.2316 6.51251 16.7496 6.28939 17.3499H3.50039C3.20865 17.3499 2.92886 17.4658 2.72257 17.6721C2.51628 17.8784 2.40039 18.1582 2.40039 18.4499C2.40039 18.7416 2.51628 19.0214 2.72257 19.2277C2.92886 19.434 3.20865 19.5499 3.50039 19.5499H6.28939C6.51251 20.1502 6.91355 20.6682 7.43891 21.0345C7.96427 21.4008 8.58893 21.5981 9.22939 21.5999C9.86996 21.598 10.4947 21.4007 11.0202 21.0344C11.5457 20.6681 11.947 20.1502 12.1704 19.5499H20.5004C20.7921 19.5499 21.0719 19.434 21.2782 19.2277C21.4845 19.0214 21.6004 18.7416 21.6004 18.4499C21.6004 18.1582 21.4845 17.8784 21.2782 17.6721C21.0719 17.4658 20.7921 17.3499 20.5004 17.3499Z"  />
</svg>
