<svg viewBox="0 0 24 24" fill="none" xmlns="http://www.w3.org/2000/svg">
<mask id="mask0_719_6002" style="mask-type:alpha" maskUnits="userSpaceOnUse" x="1" y="1" width="22" height="22">
<path fillRule="evenodd" clipRule="evenodd" d="M13.1784 1.94333L15.5585 6.76596C15.7498 7.15361 16.1201 7.42262 16.5486 7.48501L21.8704 8.25827C22.9485 8.41476 23.3801 9.74137 22.5987 10.5013L18.7477 14.2551C18.5951 14.404 18.4809 14.5877 18.415 14.7904C18.3491 14.9932 18.3334 15.2089 18.3693 15.4191L19.2786 20.7194C19.4627 21.7944 18.3355 22.6126 17.371 22.1063L12.6107 19.6035C12.4221 19.5042 12.2122 19.4523 11.9991 19.4523C11.786 19.4523 11.576 19.5042 11.3874 19.6035L6.6272 22.1063C5.66165 22.6126 4.5345 21.7944 4.71861 20.7194L5.6279 15.4191C5.66371 15.2089 5.64798 14.9932 5.58206 14.7905C5.51614 14.5877 5.40201 14.404 5.24945 14.2551L1.39851 10.5013C0.618089 9.74137 1.0487 8.41476 2.12778 8.25827L7.44854 7.48501C7.8771 7.42262 8.24839 7.15361 8.43966 6.76596L10.8188 1.94333C11.3015 0.965505 12.6956 0.965505 13.1784 1.94333" fill="#8478ff"/>
</mask>
<g mask="url(#mask0_719_6002)">
<rect y="1" width="12" height="22" fill="#8478ff"/>
<rect x="12" y="1" width="12" height="22" fill="#e4e1ff"/>
</g>
</svg>
