<svg    viewBox="0 0 24 24" fill="currentColor" xmlns="http://www.w3.org/2000/svg">
<path fillRule="evenodd" clipRule="evenodd" d="M10.9042 21.5269C11.5702 21.9669 12.4292 21.9669 13.0942 21.5269C15.2092 20.1309 19.8142 16.7939 21.7982 13.0599C24.4132 8.13395 21.3422 3.22095 17.2822 3.22095C14.9682 3.22095 13.5762 4.42995 12.8062 5.46895C12.7138 5.5962 12.5925 5.69976 12.4523 5.77117C12.3121 5.84258 12.1571 5.8798 11.9997 5.8798C11.8424 5.8798 11.6874 5.84258 11.5472 5.77117C11.407 5.69976 11.2857 5.5962 11.1932 5.46895C10.4232 4.42995 9.03124 3.22095 6.71724 3.22095C2.65724 3.22095 -0.413756 8.13395 2.20224 13.0599C4.18424 16.7939 8.79124 20.1309 10.9042 21.5269Z"  />
</svg>
