<svg    viewBox="0 0 24 24" fill="currentColor" xmlns="http://www.w3.org/2000/svg">
<path fillRule="evenodd" clip-rule="evenodd" d="M12.9 14.0751V16.2741C12.9 16.5128 12.8052 16.7417 12.6364 16.9105C12.4676 17.0792 12.2387 17.1741 12 17.1741C11.7613 17.1741 11.5324 17.0792 11.3636 16.9105C11.1948 16.7417 11.1 16.5128 11.1 16.2741V14.0751C10.827 13.9183 10.6002 13.6924 10.4422 13.4202C10.2842 13.1479 10.2007 12.8388 10.2 12.5241C10.2111 12.0542 10.4055 11.6072 10.7418 11.2788C11.0781 10.9504 11.5295 10.7665 11.9995 10.7665C12.4695 10.7665 12.9209 10.9504 13.2572 11.2788C13.5935 11.6072 13.7879 12.0542 13.799 12.5241C13.799 13.1891 13.435 13.7631 12.9 14.0751ZM8.82 6.49907C8.82106 5.6561 9.15647 4.84797 9.75263 4.25199C10.3488 3.65601 11.157 3.32086 12 3.32007C12.8429 3.32086 13.651 3.65605 14.247 4.25205C14.843 4.84806 15.1782 5.65619 15.179 6.49907H8.82ZM18.599 6.49907H17.179C17.1777 5.12592 16.6316 3.80939 15.6606 2.83842C14.6897 1.86746 13.3731 1.32139 12 1.32007C10.6268 1.32139 9.31012 1.86743 8.339 2.83836C7.36788 3.8093 6.82159 5.12583 6.82 6.49907H5.4C4.76348 6.49907 4.15303 6.75192 3.70294 7.20201C3.25286 7.6521 3 8.26255 3 8.89907V19.0991C3 19.7356 3.25286 20.346 3.70294 20.7961C4.15303 21.2462 4.76348 21.4991 5.4 21.4991H18.599C18.9143 21.4992 19.2265 21.4372 19.5177 21.3167C19.809 21.1961 20.0737 21.0194 20.2967 20.7965C20.5197 20.5736 20.6965 20.309 20.8172 20.0177C20.9379 19.7265 21 19.4143 21 19.0991V8.89907C21 8.58381 20.9379 8.27164 20.8172 7.9804C20.6965 7.68915 20.5197 7.42453 20.2967 7.20166C20.0737 6.97878 19.809 6.80202 19.5177 6.68147C19.2265 6.56092 18.9143 6.49894 18.599 6.49907Z"  />
</svg>
