<svg  viewBox="0 0 24 24" fill="currentColor" xmlns="http://www.w3.org/2000/svg">
<path fillRule="evenodd" clip-rule="evenodd" d="M12.2656 6.81763L5.09152 13.9917L4.11302 17.6413L3.4694 20.0456C3.45152 20.1128 3.45161 20.1835 3.46966 20.2506C3.4877 20.3177 3.52307 20.3789 3.57222 20.4281C3.62137 20.4772 3.68258 20.5126 3.7497 20.5306C3.81683 20.5487 3.88752 20.5488 3.95469 20.5309L6.3574 19.8865L10.0078 18.908L17.1826 11.7339L12.2656 6.81763ZM20.149 7.64888L16.3522 3.85126C16.2787 3.77768 16.1915 3.7193 16.0954 3.67947C15.9994 3.63964 15.8965 3.61914 15.7925 3.61914C15.6885 3.61914 15.5856 3.63964 15.4895 3.67947C15.3935 3.7193 15.3062 3.77768 15.2328 3.85126L13.2734 5.80984L18.1904 10.7269L20.149 8.76751C20.2226 8.69405 20.281 8.60681 20.3208 8.51077C20.3606 8.41472 20.3811 8.31177 20.3811 8.2078C20.3811 8.10383 20.3606 8.00088 20.3208 7.90483C20.281 7.80879 20.2226 7.72234 20.149 7.64888Z" />
</svg>
