<svg    viewBox="0 0 24 24" fill="currentColor" xmlns="http://www.w3.org/2000/svg">
<path d="M21.8488 20.1511L17.2418 15.5441C18.3268 14.1061 18.9778 12.3241 18.9778 10.3881C18.9778 5.65207 15.1238 1.79907 10.3888 1.79907C5.6528 1.80007 1.7998 5.65307 1.7998 10.3891C1.7998 15.1241 5.6528 18.9781 10.3888 18.9781C12.3238 18.9781 14.1068 18.3271 15.5448 17.2421L20.1518 21.8491C20.3858 22.0831 20.6928 22.2001 20.9998 22.2001C21.3068 22.2001 21.6138 22.0831 21.8488 21.8481C22.3168 21.3801 22.3168 20.6201 21.8488 20.1511ZM4.1998 10.3891C4.1998 6.97607 6.9758 4.20007 10.3888 4.20007C13.8008 4.20007 16.5768 6.97607 16.5768 10.3881C16.5768 13.8001 13.8008 16.5761 10.3888 16.5761C6.9758 16.5771 4.1998 13.8011 4.1998 10.3891Z"  />
</svg>
