<svg    viewBox="0 0 24 24" fill="currentColor" xmlns="http://www.w3.org/2000/svg">
<path fill-rule="evenodd" clip-rule="evenodd" d="M7.53304 9.21103L10.887 5.85603V15.037C10.887 15.3289 11.003 15.6088 11.2094 15.8152C11.4158 16.0216 11.6957 16.1375 11.9875 16.1375C12.2794 16.1375 12.5593 16.0216 12.7657 15.8152C12.9721 15.6088 13.088 15.3289 13.088 15.037V5.85703L16.443 9.21103C16.5448 9.31368 16.666 9.39515 16.7994 9.45075C16.9328 9.50635 17.076 9.53498 17.2205 9.53498C17.3651 9.53498 17.5082 9.50635 17.6417 9.45075C17.7751 9.39515 17.8962 9.31368 17.998 9.21103C18.1002 9.10888 18.1813 8.98759 18.2366 8.8541C18.2919 8.72061 18.3204 8.57752 18.3204 8.43303C18.3204 8.28853 18.2919 8.14545 18.2366 8.01196C18.1813 7.87846 18.1002 7.75718 17.998 7.65503L12.765 2.42203C12.5583 2.2169 12.2788 2.10181 11.9875 2.10181C11.6963 2.10181 11.4168 2.2169 11.21 2.42203L5.97704 7.65503C5.78305 7.86382 5.67757 8.1397 5.6828 8.42466C5.68803 8.70962 5.80356 8.98145 6.00509 9.18298C6.20662 9.38451 6.47845 9.50004 6.76341 9.50527C7.04837 9.5105 7.32425 9.40503 7.53304 9.21103Z"  />
<path fill-rule="evenodd" clip-rule="evenodd" d="M20.3811 13.093C19.7741 13.093 19.2801 13.586 19.2801 14.193V18.4C19.2801 19.117 18.6971 19.7 17.9811 19.7H5.99609C5.27909 19.7 4.69609 19.117 4.69609 18.4V14.192C4.69609 13.9003 4.5802 13.6205 4.37391 13.4142C4.16762 13.2079 3.88783 13.092 3.59609 13.092C3.30436 13.092 3.02457 13.2079 2.81828 13.4142C2.61199 13.6205 2.49609 13.9003 2.49609 14.192V18.4C2.49609 20.33 4.06609 21.9 5.99609 21.9H17.9811C19.9101 21.9 21.4811 20.33 21.4811 18.4V14.192C21.4811 13.9003 21.3652 13.6205 21.1589 13.4142C20.9526 13.2079 20.6728 13.092 20.3811 13.092"  />
</svg>
