<svg    viewBox="0 0 24 24" fill="currentColor" xmlns="http://www.w3.org/2000/svg">
<path fillRule="evenodd" clip-rule="evenodd" d="M21.2103 16.1051L19.6773 15.3381L13.5653 18.3941C13.0792 18.6363 12.5434 18.7619 12.0003 18.7611C11.4572 18.7618 10.9214 18.6362 10.4353 18.3941L4.32329 15.3381L2.78929 16.1051C2.62288 16.1881 2.48289 16.3158 2.38504 16.4739C2.28719 16.632 2.23535 16.8142 2.23535 17.0001C2.23535 17.1861 2.28719 17.3683 2.38504 17.5264C2.48289 17.6845 2.62288 17.8122 2.78929 17.8951L11.1063 22.0521C11.3839 22.1912 11.6902 22.2637 12.0008 22.2637C12.3113 22.2637 12.6176 22.1912 12.8953 22.0521L21.2113 17.8941C21.3774 17.8111 21.5172 17.6834 21.6148 17.5254C21.7125 17.3674 21.7642 17.1854 21.7642 16.9996C21.7642 16.8139 21.7125 16.6318 21.6148 16.4738C21.5172 16.3158 21.3774 16.1882 21.2113 16.1051"  />
<path fillRule="evenodd" clip-rule="evenodd" d="M21.2103 11.1051L19.6773 10.3381L13.5653 13.3941C13.0792 13.6363 12.5434 13.7619 12.0003 13.7611C11.4572 13.7618 10.9214 13.6362 10.4353 13.3941L4.32329 10.3381L2.78929 11.1051C2.62288 11.1881 2.48289 11.3158 2.38504 11.4739C2.28719 11.632 2.23535 11.8142 2.23535 12.0001C2.23535 12.1861 2.28719 12.3683 2.38504 12.5264C2.48289 12.6845 2.62288 12.8122 2.78929 12.8951L11.1063 17.0521C11.3839 17.1912 11.6902 17.2637 12.0008 17.2637C12.3113 17.2637 12.6176 17.1912 12.8953 17.0521L21.2113 12.8941C21.3774 12.8111 21.5172 12.6834 21.6148 12.5254C21.7125 12.3674 21.7642 12.1854 21.7642 11.9996C21.7642 11.8139 21.7125 11.6318 21.6148 11.4738C21.5172 11.3158 21.3774 11.1882 21.2113 11.1051"  />
<path fillRule="evenodd" clip-rule="evenodd" d="M11.1062 12.0531L2.79021 7.89411C2.62433 7.81097 2.48485 7.68332 2.38738 7.52543C2.28991 7.36755 2.23828 7.18566 2.23828 7.00011C2.23828 6.81456 2.28991 6.63267 2.38738 6.47478C2.48485 6.3169 2.62433 6.18925 2.79021 6.10611L11.1062 1.94811C11.3839 1.809 11.6902 1.73657 12.0007 1.73657C12.3113 1.73657 12.6176 1.809 12.8952 1.94811L21.2112 6.10611C21.3774 6.18915 21.5171 6.31682 21.6148 6.47481C21.7124 6.6328 21.7641 6.81487 21.7641 7.00061C21.7641 7.18635 21.7124 7.36842 21.6148 7.52641C21.5171 7.6844 21.3774 7.81207 21.2112 7.89511L12.8952 12.0531C12.6173 12.1918 12.3109 12.2641 12.0002 12.2641C11.6896 12.2641 11.3832 12.1918 11.1052 12.0531"  />
</svg>
