<svg    viewBox="0 0 24 24" fill="currentColor" xmlns="http://www.w3.org/2000/svg">
<path fillRule="evenodd" clip-rule="evenodd" d="M11.9997 19.191C11.8421 19.191 11.686 19.16 11.5404 19.0997C11.3949 19.0394 11.2626 18.951 11.1511 18.8395C11.0397 18.7281 10.9513 18.5958 10.891 18.4502C10.8307 18.3046 10.7997 18.1486 10.7997 17.991C10.7997 17.8334 10.8307 17.6774 10.891 17.5318C10.9513 17.3862 11.0397 17.2539 11.1511 17.1425C11.2626 17.0311 11.3949 16.9427 11.5404 16.8824C11.686 16.8221 11.8421 16.791 11.9997 16.791C12.3179 16.791 12.6231 16.9174 12.8482 17.1425C13.0732 17.3675 13.1997 17.6728 13.1997 17.991C13.1997 18.3093 13.0732 18.6145 12.8482 18.8395C12.6231 19.0646 12.3179 19.191 11.9997 19.191ZM10.9997 9.20801C10.9997 8.9428 11.105 8.68844 11.2926 8.50091C11.4801 8.31337 11.7344 8.20801 11.9997 8.20801C12.2649 8.20801 12.5192 8.31337 12.7068 8.50091C12.8943 8.68844 12.9997 8.9428 12.9997 9.20801V14.208C12.9997 14.4732 12.8943 14.7276 12.7068 14.9151C12.5192 15.1027 12.2649 15.208 11.9997 15.208C11.7344 15.208 11.4801 15.1027 11.2926 14.9151C11.105 14.7276 10.9997 14.4732 10.9997 14.208V9.20801ZM22.9137 18.815L14.0787 3.51201C13.1547 1.91201 10.8447 1.91201 9.92066 3.51201L1.08566 18.815C0.162662 20.415 1.31566 22.415 3.16466 22.415H20.8347C22.6827 22.415 23.8367 20.415 22.9137 18.815Z"  />
</svg>
